<?xml version="1.0" standalone="no"?><!DOCTYPE svg PUBLIC "-//W3C//DTD SVG 1.1//EN" "http://www.w3.org/Graphics/SVG/1.1/DTD/svg11.dtd"><svg t="1671776640149" class="icon" viewBox="0 0 1024 1024" version="1.1" xmlns="http://www.w3.org/2000/svg" p-id="6672" xmlns:xlink="http://www.w3.org/1999/xlink" width="200" height="200"><path d="M128.299 128C92.788 128 64 156.788 64 192.299v639.4C64 867.212 92.788 896 128.299 896H895.7c35.512 0 64.3-28.788 64.3-64.299V192.299C960 156.788 931.212 128 895.701 128H128.299zM128 588.313l178.162-178.162c24.795-24.795 64.996-24.795 89.792 0L817.803 832H128V588.313z m768 231.375L666.385 590.073l64.718-64.718c25.153-25.152 65.933-25.152 91.085 0L896 599.167v220.521zM694.65 471.299l-73.519 73.519L432.653 356.34c-45.064-45.064-118.127-45.064-163.19 0L128 497.803V192h768v316.657l-37.358-37.358c-45.286-45.285-118.707-45.285-163.992 0z" p-id="6673"></path></svg>