<?xml version="1.0" standalone="no"?><!DOCTYPE svg PUBLIC "-//W3C//DTD SVG 1.1//EN" "http://www.w3.org/Graphics/SVG/1.1/DTD/svg11.dtd"><svg t="1672371527228" class="icon" viewBox="0 0 1024 1024" version="1.1" xmlns="http://www.w3.org/2000/svg" p-id="2714" xmlns:xlink="http://www.w3.org/1999/xlink" width="200" height="200"><path d="M486.4 1024H291.84c-20.48 0-35.84-10.24-46.08-25.6l-240.64-460.8c-5.12-15.36-5.12-35.84 0-51.2l240.64-460.8c10.24-15.36 30.72-25.6 46.08-25.6h486.4c20.48 0 35.84 10.24 46.08 25.6l194.56 358.4c10.24 25.6 5.12 56.32-20.48 71.68-25.6 10.24-56.32 5.12-71.68-20.48L747.52 102.4H322.56l-215.04 409.6 215.04 409.6h163.84c30.72 0 51.2 20.48 51.2 51.2s-20.48 51.2-51.2 51.2z" fill="#1CD8D2" p-id="2715"></path><path d="M819.2 614.4h-66.56l25.6-25.6c20.48-20.48 20.48-51.2 0-71.68-20.48-20.48-51.2-20.48-71.68 0l-107.52 107.52c-10.24 10.24-15.36 20.48-15.36 35.84 0 15.36 5.12 25.6 15.36 35.84l107.52 107.52c20.48 20.48 51.2 20.48 71.68 0 20.48-20.48 20.48-51.2 0-71.68l-15.36-15.36H819.2c56.32 0 102.4 46.08 102.4 102.4s-46.08 102.4-102.4 102.4h-76.8c-30.72 0-51.2 20.48-51.2 51.2s20.48 51.2 51.2 51.2H819.2c112.64 0 204.8-92.16 204.8-204.8s-92.16-204.8-204.8-204.8z" fill="#1CD8D2" p-id="2716"></path></svg>